<svg width="22" height="22" viewBox="0 0 22 22" fill="none" xmlns="http://www.w3.org/2000/svg">
<path d="M18.6453 9.03281C18.3508 8.725 18.0461 8.40781 17.9312 8.12891C17.825 7.87344 17.8187 7.45 17.8125 7.03984C17.8008 6.27734 17.7883 5.41328 17.1875 4.8125C16.5867 4.21172 15.7227 4.19922 14.9602 4.1875C14.55 4.18125 14.1266 4.175 13.8711 4.06875C13.593 3.95391 13.275 3.64922 12.9672 3.35469C12.4281 2.83672 11.8156 2.25 11 2.25C10.1844 2.25 9.57266 2.83672 9.03281 3.35469C8.725 3.64922 8.40781 3.95391 8.12891 4.06875C7.875 4.175 7.45 4.18125 7.03984 4.1875C6.27734 4.19922 5.41328 4.21172 4.8125 4.8125C4.21172 5.41328 4.20312 6.27734 4.1875 7.03984C4.18125 7.45 4.175 7.87344 4.06875 8.12891C3.95391 8.40703 3.64922 8.725 3.35469 9.03281C2.83672 9.57188 2.25 10.1844 2.25 11C2.25 11.8156 2.83672 12.4273 3.35469 12.9672C3.64922 13.275 3.95391 13.5922 4.06875 13.8711C4.175 14.1266 4.18125 14.55 4.1875 14.9602C4.19922 15.7227 4.21172 16.5867 4.8125 17.1875C5.41328 17.7883 6.27734 17.8008 7.03984 17.8125C7.45 17.8187 7.87344 17.825 8.12891 17.9312C8.40703 18.0461 8.725 18.3508 9.03281 18.6453C9.57188 19.1633 10.1844 19.75 11 19.75C11.8156 19.75 12.4273 19.1633 12.9672 18.6453C13.275 18.3508 13.5922 18.0461 13.8711 17.9312C14.1266 17.825 14.55 17.8187 14.9602 17.8125C15.7227 17.8008 16.5867 17.7883 17.1875 17.1875C17.7883 16.5867 17.8008 15.7227 17.8125 14.9602C17.8187 14.55 17.825 14.1266 17.9312 13.8711C18.0461 13.593 18.3508 13.275 18.6453 12.9672C19.1633 12.4281 19.75 11.8156 19.75 11C19.75 10.1844 19.1633 9.57266 18.6453 9.03281ZM17.743 12.1023C17.3687 12.493 16.9812 12.8969 16.7758 13.393C16.5789 13.8695 16.5703 14.4141 16.5625 14.9414C16.5547 15.4883 16.5461 16.0609 16.3031 16.3031C16.0602 16.5453 15.4914 16.5547 14.9414 16.5625C14.4141 16.5703 13.8695 16.5789 13.393 16.7758C12.8969 16.9812 12.493 17.3687 12.1023 17.743C11.7117 18.1172 11.3125 18.5 11 18.5C10.6875 18.5 10.2852 18.1156 9.89766 17.743C9.51016 17.3703 9.10313 16.9812 8.60703 16.7758C8.13047 16.5789 7.58594 16.5703 7.05859 16.5625C6.51172 16.5547 5.93906 16.5461 5.69687 16.3031C5.45469 16.0602 5.44531 15.4914 5.4375 14.9414C5.42969 14.4141 5.42109 13.8695 5.22422 13.393C5.01875 12.8969 4.63125 12.493 4.25703 12.1023C3.88281 11.7117 3.5 11.3125 3.5 11C3.5 10.6875 3.88437 10.2852 4.25703 9.89766C4.62969 9.51016 5.01875 9.10313 5.22422 8.60703C5.42109 8.13047 5.42969 7.58594 5.4375 7.05859C5.44531 6.51172 5.45391 5.93906 5.69687 5.69687C5.93984 5.45469 6.50859 5.44531 7.05859 5.4375C7.58594 5.42969 8.13047 5.42109 8.60703 5.22422C9.10313 5.01875 9.50703 4.63125 9.89766 4.25703C10.2883 3.88281 10.6875 3.5 11 3.5C11.3125 3.5 11.7148 3.88437 12.1023 4.25703C12.4898 4.62969 12.8969 5.01875 13.393 5.22422C13.8695 5.42109 14.4141 5.42969 14.9414 5.4375C15.4883 5.44531 16.0609 5.45391 16.3031 5.69687C16.5453 5.93984 16.5547 6.50859 16.5625 7.05859C16.5703 7.58594 16.5789 8.13047 16.7758 8.60703C16.9812 9.10313 17.3687 9.50703 17.743 9.89766C18.1172 10.2883 18.5 10.6875 18.5 11C18.5 11.3125 18.1156 11.7148 17.743 12.1023ZM14.5672 8.68281C14.6253 8.74086 14.6714 8.80979 14.7029 8.88566C14.7343 8.96154 14.7505 9.04287 14.7505 9.125C14.7505 9.20713 14.7343 9.28846 14.7029 9.36434C14.6714 9.44021 14.6253 9.50914 14.5672 9.56719L10.1922 13.9422C10.1341 14.0003 10.0652 14.0464 9.98934 14.0779C9.91346 14.1093 9.83213 14.1255 9.75 14.1255C9.66787 14.1255 9.58654 14.1093 9.51066 14.0779C9.43479 14.0464 9.36586 14.0003 9.30781 13.9422L7.43281 12.0672C7.31554 11.9499 7.24965 11.7909 7.24965 11.625C7.24965 11.4591 7.31554 11.3001 7.43281 11.1828C7.55009 11.0655 7.70915 10.9997 7.875 10.9997C8.04085 10.9997 8.19991 11.0655 8.31719 11.1828L9.75 12.6164L13.6828 8.68281C13.7409 8.6247 13.8098 8.5786 13.8857 8.54715C13.9615 8.5157 14.0429 8.49951 14.125 8.49951C14.2071 8.49951 14.2885 8.5157 14.3643 8.54715C14.4402 8.5786 14.5091 8.6247 14.5672 8.68281Z" fill="white"/>
</svg>
