<svg width="22" height="22" viewBox="0 0 22 22" fill="none" xmlns="http://www.w3.org/2000/svg">
<path d="M19.125 12.8751C19.1236 14.2007 18.5963 15.4717 17.659 16.409C16.7216 17.3464 15.4507 17.8737 14.125 17.8751H7.25003C7.08427 17.8751 6.9253 17.8093 6.80809 17.692C6.69088 17.5748 6.62503 17.4159 6.62503 17.2501C6.62503 17.0843 6.69088 16.9254 6.80809 16.8082C6.9253 16.691 7.08427 16.6251 7.25003 16.6251H14.125C15.1196 16.6251 16.0734 16.23 16.7767 15.5268C17.4799 14.8235 17.875 13.8697 17.875 12.8751C17.875 11.8805 17.4799 10.9267 16.7767 10.2235C16.0734 9.52019 15.1196 9.1251 14.125 9.1251H5.00863L7.69222 11.8079C7.8095 11.9252 7.87538 12.0842 7.87538 12.2501C7.87538 12.416 7.8095 12.575 7.69222 12.6923C7.57495 12.8096 7.41589 12.8755 7.25003 12.8755C7.08418 12.8755 6.92512 12.8096 6.80785 12.6923L3.05785 8.94229C2.99974 8.88424 2.95364 8.81531 2.92218 8.73944C2.89073 8.66357 2.87454 8.58224 2.87454 8.5001C2.87454 8.41797 2.89073 8.33664 2.92218 8.26077C2.95364 8.18489 2.99974 8.11596 3.05785 8.05792L6.80785 4.30792C6.92512 4.19064 7.08418 4.12476 7.25003 4.12476C7.41589 4.12476 7.57495 4.19064 7.69222 4.30792C7.8095 4.42519 7.87538 4.58425 7.87538 4.7501C7.87538 4.91596 7.8095 5.07502 7.69222 5.19229L5.00863 7.8751H14.125C15.4507 7.87655 16.7216 8.4038 17.659 9.34117C18.5963 10.2785 19.1236 11.5495 19.125 12.8751Z" fill="white"/>
</svg>
