<svg width="22" height="22" viewBox="0 0 22 22" fill="none" xmlns="http://www.w3.org/2000/svg">
<path d="M15.375 7.99766V7.5625C15.375 5.60312 12.4195 4.125 8.5 4.125C4.58047 4.125 1.625 5.60312 1.625 7.5625V10.6875C1.625 12.3195 3.67578 13.6164 6.625 14.0047V14.4375C6.625 16.3969 9.58047 17.875 13.5 17.875C17.4195 17.875 20.375 16.3969 20.375 14.4375V11.3125C20.375 9.69531 18.3891 8.39687 15.375 7.99766ZM19.125 11.3125C19.125 12.3453 16.7195 13.5 13.5 13.5C13.2086 13.5 12.9195 13.4898 12.6344 13.4711C14.3195 12.857 15.375 11.8594 15.375 10.6875V9.26094C17.7086 9.60859 19.125 10.5523 19.125 11.3125ZM6.625 12.7383V10.8797C7.2467 10.9607 7.87304 11.0009 8.5 11C9.12696 11.0009 9.7533 10.9607 10.375 10.8797V12.7383C9.75422 12.83 9.12751 12.8757 8.5 12.875C7.87249 12.8757 7.24578 12.83 6.625 12.7383ZM14.125 9.58828V10.6875C14.125 11.343 13.1555 12.0469 11.625 12.4742V10.6484C12.6336 10.4039 13.4875 10.0398 14.125 9.58828ZM8.5 5.375C11.7195 5.375 14.125 6.52969 14.125 7.5625C14.125 8.59531 11.7195 9.75 8.5 9.75C5.28047 9.75 2.875 8.59531 2.875 7.5625C2.875 6.52969 5.28047 5.375 8.5 5.375ZM2.875 10.6875V9.58828C3.5125 10.0398 4.36641 10.4039 5.375 10.6484V12.4742C3.84453 12.0469 2.875 11.343 2.875 10.6875ZM7.875 14.4375V14.1117C8.08047 14.1195 8.28828 14.125 8.5 14.125C8.80312 14.125 9.09922 14.1148 9.38984 14.0977C9.7127 14.2132 10.0416 14.3113 10.375 14.3914V16.2242C8.84453 15.7969 7.875 15.093 7.875 14.4375ZM11.625 16.4883V14.625C12.2465 14.7085 12.8729 14.7503 13.5 14.75C14.127 14.7509 14.7533 14.7107 15.375 14.6297V16.4883C14.1316 16.6706 12.8684 16.6706 11.625 16.4883ZM16.625 16.2242V14.3984C17.6336 14.1539 18.4875 13.7898 19.125 13.3383V14.4375C19.125 15.093 18.1555 15.7969 16.625 16.2242Z" fill="white"/>
</svg>
